# xmcd
# 
# Track frame offsets:
#     150
#     13597
#     28717
#     48337
#     65585
#     80480
#     95960
#     113745
#     133700
#     155907
#     176072
# 
# Disc length: 2607
# 
# Revision: 5
# Processed by: cddbd v1.5.2PL0 Copyright (c) Steve Scherf et al.
# Submitted via: fre:ac v1.0.31
# 
DISCID=980a2d0b
DTITLE=Columbia Blues - Fenton Robinson Somebody Loan Me A Dime
DYEAR=1974
DGENRE=Blues
TTITLE0=Somebody Loan Me A Dime
TTITLE1=The Getaway
TTITLE2=Directly From My Heart To You
TTITLE3=Going To Chicago
TTITLE4=You Say You're Leaving
TTITLE5=Checking On My Woman
TTITLE6=You Don't Know What Love Is
TTITLE7=I've Changed
TTITLE8=Country Girl
TTITLE9=Gotta Wake Up
TTITLE10=Texas Flood
EXTD=
EXTT0=
EXTT1=
EXTT2=
EXTT3=
EXTT4=
EXTT5=
EXTT6=
EXTT7=
EXTT8=
EXTT9=
EXTT10=
PLAYORDER=
